# xmcd
#
# Track frame offsets: 
#        150
#        14765
#        29917
#        43037
#        56750
#        69582
#        80842
#        104740
#        116415
#        131977
#        147075
#
# Disc length: 2117 seconds
#
# Revision: 2
# Processed by: cddbd v1.5.2PL0 Copyright (c) Steve Scherf et al.
# Submitted via: ExactAudioCopy v0.95b4
#
DISCID=af08430b
DTITLE=The Whispers - Vintage Whispers
DYEAR=1988
DGENRE=R&B
TTITLE0=A Mother For My Children
TTITLE1=Somebody Loves You
TTITLE2=Planets of Life
TTITLE3=I Only Meant to We My Feet
TTITLE4=Seems Like I Gotta Do Wrong
TTITLE5=If You Feel Like Coming Home
TTITLE6=Bingo
TTITLE7=There's A Love For Everyone
TTITLE8=Can't Help But Love You
TTITLE9=Let's Try It Once With Feeling
TTITLE10=Your Love is So Doggone Good
EXTD=
EXTT0=
EXTT1=
EXTT2=
EXTT3=
EXTT4=
EXTT5=
EXTT6=
EXTT7=
EXTT8=
EXTT9=
EXTT10=
PLAYORDER=
